<?xml version="1.0" encoding="UTF-8" standalone="no"?>
<!DOCTYPE svg PUBLIC "-//W3C//DTD SVG 1.1//EN"
 "http://www.w3.org/Graphics/SVG/1.1/DTD/svg11.dtd">
<!-- Generated by graphviz version 3.0.0 (20220226.1711)
 -->
<!-- Title: dependencies Pages: 1 -->
<svg width="389pt" height="174pt"
 viewBox="0.00 0.00 389.00 173.80" xmlns="http://www.w3.org/2000/svg" xmlns:xlink="http://www.w3.org/1999/xlink">
<g id="graph0" class="graph" transform="scale(1 1) rotate(0) translate(4 169.8)">
<title>dependencies</title>
<polygon fill="white" stroke="transparent" points="-4,4 -4,-169.8 385,-169.8 385,4 -4,4"/>
<text text-anchor="middle" x="190.5" y="-8.2" font-family="sans-serif" font-size="14.00">dependencies</text>
<g id="clust1" class="cluster">
<title>cluster_AppModule</title>
<polygon fill="none" stroke="black" stroke-dasharray="1,5" points="8,-32.8 8,-157.8 373,-157.8 373,-32.8 8,-32.8"/>
</g>
<g id="clust3" class="cluster">
<title>cluster_AppModule_imports</title>
<polygon fill="none" stroke="black" points="16,-40.8 16,-92.8 365,-92.8 365,-40.8 16,-40.8"/>
</g>
<!-- HealthModule -->
<g id="node1" class="node">
<title>HealthModule</title>
<polygon fill="#8dd3c7" stroke="black" points="357.37,-84.8 354.37,-88.8 333.37,-88.8 330.37,-84.8 260.63,-84.8 260.63,-48.8 357.37,-48.8 357.37,-84.8"/>
<text text-anchor="middle" x="309" y="-62.6" font-family="Times,serif" font-size="14.00">HealthModule</text>
</g>
<!-- AppModule -->
<g id="node4" class="node">
<title>AppModule</title>
<polygon fill="#8dd3c7" stroke="black" points="230.66,-149.8 227.66,-153.8 206.66,-153.8 203.66,-149.8 147.34,-149.8 147.34,-113.8 230.66,-113.8 230.66,-149.8"/>
<text text-anchor="middle" x="189" y="-127.6" font-family="Times,serif" font-size="14.00">AppModule</text>
</g>
<!-- HealthModule&#45;&gt;AppModule -->
<g id="edge1" class="edge">
<title>HealthModule&#45;&gt;AppModule</title>
<path fill="none" stroke="black" d="M309,-84.91C309,-104.14 309,-131.8 309,-131.8 309,-131.8 240.97,-131.8 240.97,-131.8"/>
<polygon fill="black" stroke="black" points="240.97,-128.3 230.97,-131.8 240.97,-135.3 240.97,-128.3"/>
</g>
<!-- LoggingModule -->
<g id="node2" class="node">
<title>LoggingModule</title>
<polygon fill="#8dd3c7" stroke="black" points="242.49,-84.8 239.49,-88.8 218.49,-88.8 215.49,-84.8 135.51,-84.8 135.51,-48.8 242.49,-48.8 242.49,-84.8"/>
<text text-anchor="middle" x="189" y="-62.6" font-family="Times,serif" font-size="14.00">LoggingModule</text>
</g>
<!-- LoggingModule&#45;&gt;AppModule -->
<g id="edge2" class="edge">
<title>LoggingModule&#45;&gt;AppModule</title>
<path fill="none" stroke="black" d="M189,-84.91C189,-84.91 189,-103.79 189,-103.79"/>
<polygon fill="black" stroke="black" points="185.5,-103.79 189,-113.79 192.5,-103.79 185.5,-103.79"/>
</g>
<!-- ProxyModule -->
<g id="node3" class="node">
<title>ProxyModule</title>
<polygon fill="#8dd3c7" stroke="black" points="117.5,-84.8 114.5,-88.8 93.5,-88.8 90.5,-84.8 24.5,-84.8 24.5,-48.8 117.5,-48.8 117.5,-84.8"/>
<text text-anchor="middle" x="71" y="-62.6" font-family="Times,serif" font-size="14.00">ProxyModule</text>
</g>
<!-- ProxyModule&#45;&gt;AppModule -->
<g id="edge3" class="edge">
<title>ProxyModule&#45;&gt;AppModule</title>
<path fill="none" stroke="black" d="M71,-84.91C71,-104.14 71,-131.8 71,-131.8 71,-131.8 137.07,-131.8 137.07,-131.8"/>
<polygon fill="black" stroke="black" points="137.07,-135.3 147.07,-131.8 137.07,-128.3 137.07,-135.3"/>
</g>
</g>
</svg>
