<?xml version="1.0" encoding="UTF-8" standalone="no"?>
<!DOCTYPE svg PUBLIC "-//W3C//DTD SVG 1.1//EN"
 "http://www.w3.org/Graphics/SVG/1.1/DTD/svg11.dtd">
<!-- Generated by graphviz version 3.0.0 (20220226.1711)
 -->
<!-- Title: dependencies Pages: 1 -->
<svg width="234pt" height="174pt"
 viewBox="0.00 0.00 234.00 173.80" xmlns="http://www.w3.org/2000/svg" xmlns:xlink="http://www.w3.org/1999/xlink">
<g id="graph0" class="graph" transform="scale(1 1) rotate(0) translate(4 169.8)">
<title>dependencies</title>
<polygon fill="white" stroke="transparent" points="-4,4 -4,-169.8 230,-169.8 230,4 -4,4"/>
<text text-anchor="middle" x="113" y="-8.2" font-family="sans-serif" font-size="14.00">dependencies</text>
<g id="clust1" class="cluster">
<title>cluster_LoggingModule</title>
<polygon fill="none" stroke="black" stroke-dasharray="1,5" points="8,-32.8 8,-157.8 218,-157.8 218,-32.8 8,-32.8"/>
</g>
<g id="clust4" class="cluster">
<title>cluster_LoggingModule_exports</title>
<polygon fill="none" stroke="black" points="16,-97.8 16,-149.8 210,-149.8 210,-97.8 16,-97.8"/>
</g>
<!-- ElasticSearchLoggerService  -->
<g id="node1" class="node">
<title>ElasticSearchLoggerService </title>
<polygon fill="#fb8072" stroke="black" points="202.09,-141.8 23.91,-141.8 23.91,-105.8 202.09,-105.8 202.09,-141.8"/>
<text text-anchor="middle" x="113" y="-119.6" font-family="Times,serif" font-size="14.00">ElasticSearchLoggerService </text>
</g>
<!-- LoggingModule -->
<g id="node2" class="node">
<title>LoggingModule</title>
<polygon fill="#8dd3c7" stroke="black" points="166.49,-76.8 163.49,-80.8 142.49,-80.8 139.49,-76.8 59.51,-76.8 59.51,-40.8 166.49,-40.8 166.49,-76.8"/>
<text text-anchor="middle" x="113" y="-54.6" font-family="Times,serif" font-size="14.00">LoggingModule</text>
</g>
<!-- LoggingModule&#45;&gt;ElasticSearchLoggerService  -->
<g id="edge1" class="edge">
<title>LoggingModule&#45;&gt;ElasticSearchLoggerService </title>
<path fill="none" stroke="black" stroke-dasharray="5,2" d="M113,-76.91C113,-76.91 113,-95.79 113,-95.79"/>
<polygon fill="black" stroke="black" points="109.5,-95.79 113,-105.79 116.5,-95.79 109.5,-95.79"/>
</g>
</g>
</svg>
